ground reactions
version=1
nRows=55
nColumns=19
inDegrees=no
endheader
time	ground_force_l_vx	ground_force_l_vy	ground_force_l_vz	ground_force_l_px	ground_force_l_py	ground_force_l_pz	ground_torque_l_x	ground_torque_l_y	ground_torque_l_z	ground_force_r_vx	ground_force_r_vy	ground_force_r_vz	ground_force_r_px	ground_force_r_py	ground_force_r_pz	ground_torque_r_x	ground_torque_r_y	ground_torque_r_z
0.230000	-0.371378	2.786343	0.697888	0.541058	0.000000	-0.538335	0.000000	0.000000	0.000000	-36.004403	272.457421	-18.891116	1.046789	0.000000	-0.416517	0.000000	-0.964939	0.000000
0.231000	-0.407441	3.057571	0.764889	0.493054	0.000000	-0.488668	0.000000	0.000000	0.000000	-40.302976	305.418683	-21.181891	1.045340	0.000000	-0.416929	0.000000	-1.071505	0.000000
0.232000	-0.440484	3.306435	0.825883	0.444700	0.000000	-0.438789	0.000000	0.000000	0.000000	-44.667515	339.074642	-23.523250	1.043908	0.000000	-0.417335	0.000000	-1.175963	0.000000
0.233000	-0.468786	3.520027	0.877603	0.395780	0.000000	-0.388611	0.000000	0.000000	0.000000	-48.993452	372.676190	-25.863728	1.042497	0.000000	-0.417731	0.000000	-1.274779	0.000000
0.234000	-0.491227	3.689935	0.917977	0.346334	0.000000	-0.338265	0.000000	0.000000	0.000000	-53.202713	405.665033	-28.164921	1.041109	0.000000	-0.418115	0.000000	-1.365428	0.000000
0.235000	-0.507192	3.811468	0.945919	0.296711	0.000000	-0.288163	0.000000	0.000000	0.000000	-57.238007	437.631789	-30.398592	1.039744	0.000000	-0.418483	0.000000	-1.446200	0.000000
0.236000	-0.516473	3.882985	0.961144	0.247588	0.000000	-0.238999	0.000000	0.000000	0.000000	-61.058475	468.284131	-32.544477	1.038401	0.000000	-0.418834	0.000000	-1.516051	0.000000
0.237000	-0.519195	3.905313	0.964001	0.199904	0.000000	-0.191690	0.000000	0.000000	0.000000	-64.636331	497.422177	-34.588579	1.037079	0.000000	-0.419164	0.000000	-1.574478	0.000000
0.238000	-0.515737	3.881204	0.955327	0.154757	0.000000	-0.147276	0.000000	0.000000	0.000000	-67.954200	524.919136	-36.521843	1.035778	0.000000	-0.419473	0.000000	-1.621420	0.000000
0.239000	-0.506673	3.814847	0.936305	0.113266	0.000000	-0.106791	0.000000	0.000000	0.000000	-71.002993	550.705875	-38.339086	1.034498	0.000000	-0.419760	0.000000	-1.657163	0.000000
0.240000	-0.492702	3.711426	0.908348	0.076429	0.000000	-0.071137	0.000000	0.000000	0.000000	-73.780178	574.758447	-40.038145	1.033237	0.000000	-0.420025	0.000000	-1.682269	0.000000
0.241000	-0.474603	3.576721	0.872988	0.045012	0.000000	-0.040979	0.000000	0.000000	0.000000	-76.288354	597.087937	-41.619182	1.031997	0.000000	-0.420268	0.000000	-1.697507	0.000000
0.242000	-0.453184	3.416763	0.831787	0.019470	0.000000	-0.016679	0.000000	0.000000	0.000000	-78.534088	617.732128	-43.084117	1.030777	0.000000	-0.420488	0.000000	-1.703796	0.000000
0.243000	-0.429246	3.237546	0.786266	-0.000084	-0.000000	0.001728	0.000000	0.000000	0.000000	-80.526935	636.748663	-44.436168	1.029580	0.000000	-0.420687	0.000000	-1.702152	0.000000
0.244000	-0.403550	3.044795	0.737847	-0.013867	-0.000000	0.014522	0.000000	0.000000	0.000000	-82.278636	654.209433	-45.679473	1.028404	0.000000	-0.420864	0.000000	-1.693648	0.000000
0.245000	-0.376795	2.843782	0.687814	-0.022387	-0.000000	0.022245	0.000000	0.000000	0.000000	-83.802454	670.195989	-46.818786	1.027253	0.000000	-0.421021	0.000000	-1.679379	0.000000
0.246000	-0.349603	2.639210	0.637287	-0.026371	-0.000000	0.025643	0.000000	0.000000	0.000000	-85.112627	684.795822	-47.859238	1.026127	0.000000	-0.421159	0.000000	-1.660427	0.000000
0.247000	-0.322505	2.435131	0.587212	-0.026689	-0.000000	0.025583	0.000000	0.000000	0.000000	-86.223925	698.099381	-48.806143	1.025027	0.000000	-0.421278	0.000000	-1.637841	0.000000
0.248000	-0.295945	2.234916	0.538354	-0.024272	-0.000000	0.022979	0.000000	0.000000	0.000000	-87.151287	710.197708	-49.664849	1.023953	0.000000	-0.421380	0.000000	-1.612615	0.000000
0.249000	-0.270274	2.041261	0.491312	-0.020036	-0.000000	0.018719	0.000000	0.000000	0.000000	-87.909544	721.180602	-50.440626	1.022907	0.000000	-0.421466	0.000000	-1.585675	0.000000
0.250000	-0.245758	1.856216	0.446525	-0.014825	-0.000000	0.013609	0.000000	0.000000	0.000000	-88.513193	731.135226	-51.138588	1.021888	0.000000	-0.421536	0.000000	-1.557864	0.000000
0.251000	-0.222587	1.681244	0.404294	-0.009356	-0.000000	0.008331	0.000000	0.000000	0.000000	-88.976230	740.145086	-51.763629	1.020896	0.000000	-0.421594	0.000000	-1.529941	0.000000
0.252000	-0.200880	1.517287	0.364801	-0.004200	-0.000000	0.003417	0.000000	0.000000	0.000000	-89.312029	748.289315	-52.320392	1.019930	0.000000	-0.421638	0.000000	-1.502569	0.000000
0.253000	-0.180700	1.364846	0.328126	0.000237	0.000000	-0.000758	0.000000	0.000000	0.000000	-89.533253	755.642210	-52.813247	1.018988	0.000000	-0.421672	0.000000	-1.476319	0.000000
0.254000	-0.162065	1.224060	0.294275	0.003704	0.000000	-0.003974	0.000000	0.000000	0.000000	-89.651801	762.272971	-53.246283	1.018069	0.000000	-0.421696	0.000000	-1.451669	0.000000
0.255000	-0.144951	1.094782	0.263190	0.006099	0.000000	-0.006146	0.000000	0.000000	0.000000	-89.678774	768.245607	-53.623306	1.017172	0.000000	-0.421711	0.000000	-1.429002	0.000000
0.256000	-0.129311	0.976651	0.234774	0.007435	0.000000	-0.007303	0.000000	0.000000	0.000000	-89.624470	773.618961	-53.947854	1.016293	0.000000	-0.421719	0.000000	-1.408616	0.000000
0.257000	-0.115077	0.869157	0.208896	0.007820	0.000000	-0.007558	0.000000	0.000000	0.000000	-89.498383	778.446839	-54.223208	1.015432	0.000000	-0.421720	0.000000	-1.390725	0.000000
0.258000	-0.102168	0.771691	0.185411	0.007422	0.000000	-0.007082	0.000000	0.000000	0.000000	-89.309227	782.778204	-54.452409	1.014585	0.000000	-0.421717	0.000000	-1.375465	0.000000
0.259000	-0.090497	0.683593	0.164164	0.006444	0.000000	-0.006072	0.000000	0.000000	0.000000	-89.064955	786.657425	-54.638277	1.013751	0.000000	-0.421711	0.000000	-1.362902	0.000000
0.260000	-0.079976	0.604184	0.144996	0.005097	0.000000	-0.004732	0.000000	0.000000	0.000000	-88.772800	790.124558	-54.783434	1.012928	0.000000	-0.421701	0.000000	-1.353035	0.000000
0.261000	-0.070515	0.532787	0.127753	0.003579	0.000000	-0.003252	0.000000	0.000000	0.000000	-88.439307	793.215649	-54.890319	1.012112	0.000000	-0.421690	0.000000	-1.345809	0.000000
0.262000	-0.062029	0.468750	0.112284	0.002060	0.000000	-0.001792	0.000000	0.000000	0.000000	-88.070377	795.963039	-54.961213	1.011303	0.000000	-0.421679	0.000000	-1.341117	0.000000
0.263000	-0.054437	0.411454	0.098447	0.000676	0.000000	-0.000478	0.000000	0.000000	0.000000	-87.671306	798.395674	-54.998250	1.010498	0.000000	-0.421667	0.000000	-1.338810	0.000000
0.264000	-0.047661	0.360315	0.086105	-0.000479	-0.000000	0.000605	0.000000	0.000000	0.000000	-87.246830	800.539412	-55.003442	1.009695	0.000000	-0.421657	0.000000	-1.338703	0.000000
0.265000	-0.041631	0.314792	0.075131	-0.001352	-0.000000	0.001409	0.000000	0.000000	0.000000	-86.801169	802.417311	-54.978687	1.008893	0.000000	-0.421648	0.000000	-1.340582	0.000000
0.266000	-0.036279	0.274379	0.065403	-0.001925	-0.000000	0.001923	0.000000	0.000000	0.000000	-86.338062	804.049907	-54.925785	1.008091	0.000000	-0.421641	0.000000	-1.344212	0.000000
0.267000	-0.031543	0.238608	0.056810	-0.002210	-0.000000	0.002161	0.000000	0.000000	0.000000	-85.860811	805.455473	-54.846446	1.007288	0.000000	-0.421637	0.000000	-1.349340	0.000000
0.268000	-0.027366	0.207044	0.049244	-0.002243	-0.000000	0.002162	0.000000	0.000000	0.000000	-85.372320	806.650265	-54.742306	1.006482	0.000000	-0.421636	0.000000	-1.355705	0.000000
0.269000	-0.023694	0.179282	0.042604	-0.002074	-0.000000	0.001974	0.000000	0.000000	0.000000	-84.875125	807.648739	-54.614927	1.005672	0.000000	-0.421638	0.000000	-1.363039	0.000000
0.270000	-0.020476	0.154944	0.036798	-0.001759	-0.000000	0.001654	0.000000	0.000000	0.000000	-84.371435	808.463763	-54.465808	1.004859	0.000000	-0.421644	0.000000	-1.371075	0.000000
0.271000	-0.017665	0.133677	0.031736	-0.001358	-0.000000	0.001257	0.000000	0.000000	0.000000	-83.863155	809.106792	-54.296388	1.004042	0.000000	-0.421653	0.000000	-1.379550	0.000000
0.272000	-0.015217	0.115155	0.027336	-0.000923	-0.000000	0.000835	0.000000	0.000000	0.000000	-83.351925	809.588048	-54.108047	1.003220	0.000000	-0.421667	0.000000	-1.388209	0.000000
0.273000	-0.013093	0.099073	0.023522	-0.000500	-0.000000	0.000429	0.000000	0.000000	0.000000	-82.839137	809.916660	-53.902113	1.002394	0.000000	-0.421684	0.000000	-1.396810	0.000000
0.274000	-0.011253	0.085148	0.020224	-0.000122	-0.000000	0.000071	0.000000	0.000000	0.000000	-82.325969	810.100805	-53.679861	1.001563	0.000000	-0.421705	0.000000	-1.405124	0.000000
0.275000	-0.009665	0.073122	0.017377	0.000186	0.000000	-0.000217	0.000000	0.000000	0.000000	-81.813401	810.147827	-53.442510	1.000728	0.000000	-0.421729	0.000000	-1.412939	0.000000
0.276000	-0.008296	0.062756	0.014924	0.000413	0.000000	-0.000425	0.000000	0.000000	0.000000	-81.302241	810.064343	-53.191231	0.999889	0.000000	-0.421758	0.000000	-1.420060	0.000000
0.277000	-0.007118	0.053837	0.012812	0.000556	0.000000	-0.000552	0.000000	0.000000	0.000000	-80.793144	809.856337	-52.927139	0.999047	0.000000	-0.421790	0.000000	-1.426315	0.000000
0.278000	-0.006105	0.046171	0.010994	0.000619	0.000000	-0.000604	0.000000	0.000000	0.000000	-80.286626	809.529242	-52.651295	0.998202	0.000000	-0.421825	0.000000	-1.431550	0.000000
0.279000	-0.005235	0.039585	0.009430	0.000615	0.000000	-0.000592	0.000000	0.000000	0.000000	-79.783086	809.088017	-52.364707	0.997356	0.000000	-0.421863	0.000000	-1.435634	0.000000
0.280000	-0.004487	0.033930	0.008085	0.000559	0.000000	-0.000530	0.000000	0.000000	0.000000	-79.282817	808.537208	-52.068327	0.996509	0.000000	-0.421905	0.000000	-1.438457	0.000000
0.281000	-0.003844	0.029071	0.006926	0.000465	0.000000	-0.000436	0.000000	0.000000	0.000000	-78.786023	807.881000	-51.763051	0.995662	0.000000	-0.421950	0.000000	-1.439931	0.000000
0.282000	-0.003292	0.024895	0.005929	0.000350	0.000000	-0.000323	0.000000	0.000000	0.000000	-78.292827	807.123276	-51.449719	0.994817	0.000000	-0.421997	0.000000	-1.439988	0.000000
0.283000	-0.002817	0.021304	0.005070	0.000229	0.000000	-0.000206	0.000000	0.000000	0.000000	-77.803290	806.267647	-51.129115	0.993973	0.000000	-0.422046	0.000000	-1.438579	0.000000
0.284000	-0.002407	0.018213	0.004329	0.000114	0.000000	-0.000095	0.000000	0.000000	0.000000	-77.317413	805.317499	-50.801965	0.993132	0.000000	-0.422098	0.000000	-1.435678	0.000000
